<svg preserveAspectRatio="none" width="384" height="366" viewBox="0 0 384 366" fill="none" xmlns="http://www.w3.org/2000/svg">
    <!-- Background -->
    <rect width="100%" height="100%" fill="#0F0F0F"/>

    <!-- Define gradient colors -->
    <defs>
        <linearGradient id="gradient1" x1="0%" y1="0%" x2="100%" y2="0%">
            <stop offset="0%" stop-color="#FF0055"/>
            <stop offset="50%" stop-color="#FF0099"/>
            <stop offset="100%" stop-color="#FF00FF"/>
        </linearGradient>
        <linearGradient id="gradient2" x1="0%" y1="0%" x2="100%" y2="0%">
            <stop offset="0%" stop-color="#FFFF00"/>
            <stop offset="50%" stop-color="#FFDD00"/>
            <stop offset="100%" stop-color="#FFAA00"/>
        </linearGradient>
        <!-- Define more gradients -->
        <linearGradient id="gradient3" x1="0%" y1="0%" x2="100%" y2="0%">
            <stop offset="0%" stop-color="#00FFFF"/>
            <stop offset="50%" stop-color="#00CCFF"/>
            <stop offset="100%" stop-color="#0099FF"/>
        </linearGradient>
        <linearGradient id="gradient4" x1="0%" y1="0%" x2="100%" y2="0%">
            <stop offset="0%" stop-color="#33FF00"/>
            <stop offset="50%" stop-color="#00FF00"/>
            <stop offset="100%" stop-color="#00FF33"/>
        </linearGradient>
        <!-- Add more gradients -->
        <!-- Continue until a total of 25 gradients -->
        <!-- Additional gradients -->
        <linearGradient id="gradient5" x1="0%" y1="0%" x2="100%" y2="0%">
            <stop offset="0%" stop-color="#FF9933"/>
            <stop offset="50%" stop-color="#FF6600"/>
            <stop offset="100%" stop-color="#CC3300"/>
        </linearGradient>
        <linearGradient id="gradient6" x1="0%" y1="0%" x2="100%" y2="0%">
            <stop offset="0%" stop-color="#00FF66"/>
            <stop offset="50%" stop-color="#00CC99"/>
            <stop offset="100%" stop-color="#0099CC"/>
        </linearGradient>
        <!-- Add more gradients -->
        <!-- Continue until a total of 31 gradients -->
    </defs>

    <!-- Rounded rectangle with multiple gradient strokes -->
    <path vector-effect="non-scaling-stroke" d="M32 1H319.453C328.037 1 336.238 4.5601 342.1 10.832L374.648 45.6545C380.015 51.3966 383 58.9629 383 66.8225V334C383 351.121 369.121 365 352 365H32C14.8792 365 1 351.121 1 334V32C1 14.8792 14.8792 1 32 1Z" stroke="url(#gradient1)" stroke-opacity="0.85" stroke-width="2"/>
    <path vector-effect="non-scaling-stroke" d="M32 1H319.453C328.037 1 336.238 4.5601 342.1 10.832L374.648 45.6545C380.015 51.3966 383 58.9629 383 66.8225V334C383 351.121 369.121 365 352 365H32C14.8792 365 1 351.121 1 334V32C1 14.8792 14.8792 1 32 1Z" stroke="url(#gradient2)" stroke-opacity="0.85" stroke-width="2"/>
    <!-- Add more paths with different gradients -->
    <path vector-effect="non-scaling-stroke" d="M32 1H319.453C328.037 1 336.238 4.5601 342.1 10.832L374.648 45.6545C380.015 51.3966 383 58.9629 383 66.8225V334C383 351.121 369.121 365 352 365H32C14.8792 365 1 351.121 1 334V32C1 14.8792 14.8792 1 32 1Z" stroke="url(#gradient3)" stroke-opacity="0.85" stroke-width="2"/>
    <path vector-effect="non-scaling-stroke" d="M32 1H319.453C328.037 1 336.238 4.5601 342.1 10.832L374.648 45.6545C380.015 51.3966 383 58.9629 383 66.8225V334C383 351.121 369.121 365 352 365H32C14.8792 365 1 351.121 1 334V32C1 14.8792 14.8792 1 32 1Z" stroke="url(#gradient4)" stroke-opacity="0.85" stroke-width="2"/>
    <!-- Add more paths with different gradients -->
    <!-- Additional paths with newly added gradients -->
    <path vector-effect="non-scaling-stroke" d="M32 1H319.453C328.037 1 336.238 4.5601 342.1 10.832L374.648 45.6545C380.015 51.3966 383 58.9629 383 66.8225V334C383 351.121 369.121 365 352 365H32C14.8792 365 1 351.121 1 334V32C1 14.8792 14.8792 1 32 1Z" stroke="url(#gradient5)" stroke-opacity="0.85" stroke-width="2"/>
    <path vector-effect="non-scaling-stroke" d="M32 1H319.453C328.037 1 336.238 4.5601 342.1 10.832L374.648 45.6545C380.015 51.3966 383 58.9629 383 66.8225V334C383 351.121 369.121 365 352 365H32C14.8792 365 1 351.121 1 334V32C1 14.8792 14.8792 1 32 1Z" stroke="url(#gradient6)" stroke-opacity="0.85" stroke-width="2"/>
</svg>
