<?xml version="1.0" encoding="iso-8859-1"?>
<!-- Uploaded to: SVG Repo, www.svgrepo.com, Generator: SVG Repo Mixer Tools -->
<svg height="800px" width="800px" version="1.1" id="Layer_1" xmlns="http://www.w3.org/2000/svg" xmlns:xlink="http://www.w3.org/1999/xlink" 
	 viewBox="0 0 512 512" xml:space="preserve">
<g transform="translate(1 1)">
	<path style="fill:#FECC00;" d="M58.733,315.587V383l25.6,25.6l34.133-59.733H84.333L58.733,315.587z"/>
	<path style="fill:#FFE100;" d="M110.787,348.867H423.96c29.867,0,53.76-26.453,53.76-59.733S453.827,229.4,423.96,229.4H110.787
		l-69.12,59.733L110.787,348.867z"/>
	<path style="fill:#FFFFFF;" d="M110.787,229.4H84.333l-76.8,59.733l76.8,59.733h26.453l-69.12-59.733L110.787,229.4z"/>
	<path style="fill:#FFA800;" d="M442.733,229.4h-19.627c29.867,0,53.76,26.453,53.76,59.733s-23.893,59.733-53.76,59.733h19.627
		c32.427,0,59.733-26.453,59.733-59.733S475.16,229.4,442.733,229.4"/>
	<path style="fill:#FECC00;" d="M340.333,229.4h-102.4l15.36-59.733h71.68L340.333,229.4z"/>
	<path style="fill:#FFFFFF;" d="M229.4,169.667L203.8,229.4h34.133l15.36-59.733H229.4z"/>
	<path style="fill:#FFA800;" d="M348.867,169.667h-23.893l15.36,59.733h34.133L348.867,169.667z"/>
	<path style="fill:#FECC00;" d="M84.333,229.4h34.133l-34.133-59.733l-25.6,25.6v61.44L84.333,229.4z"/>
	<g>
		<path style="fill:#FFFFFF;" d="M58.733,195.267l29.867-17.92l-4.267-7.68l-42.667,25.6v67.413l17.067-13.653V195.267z"/>
		<path style="fill:#FFFFFF;" d="M58.733,383v-53.76l-17.067-13.653V383l42.667,25.6l4.267-7.68L58.733,383z"/>
	</g>
	<path d="M442.733,357.4h-358.4c-1.707,0-3.413-0.853-5.12-1.707l-76.8-59.733C-0.147,294.253-1,291.693-1,289.133
		c0-2.56,0.853-5.12,3.413-6.827l76.8-59.733c1.707-0.853,3.413-1.707,5.12-1.707h358.4c37.547,0,68.267,30.72,68.267,68.267
		S480.28,357.4,442.733,357.4z M86.893,340.333h355.84c28.16,0,51.2-23.04,51.2-51.2c0-28.16-23.04-51.2-51.2-51.2H86.893
		l-65.707,51.2L86.893,340.333z"/>
	<path d="M41.667,271.213c-0.853,0-2.56,0-3.413-0.853c-3.413-1.707-5.12-4.267-5.12-7.68v-67.413c0-3.413,1.707-5.973,4.267-7.68
		l42.667-25.6c1.707-0.853,4.267-0.853,6.827-0.853c2.56,0.853,4.267,1.707,5.12,4.267l34.133,59.733
		c1.707,2.56,1.707,5.973,0,8.533c-1.707,2.56-4.267,4.267-7.68,4.267H86.893l-40.107,31.573
		C45.08,270.36,43.373,271.213,41.667,271.213z M50.2,200.387v45.227l29.013-22.187c1.707-1.707,3.413-2.56,5.12-2.56h19.627
		l-23.04-39.253L50.2,200.387z"/>
	<path d="M84.333,417.133c-1.707,0-3.413,0-4.267-0.853L37.4,390.68c-2.56-1.707-4.267-4.267-4.267-7.68v-67.413
		c0-3.413,1.707-5.973,5.12-7.68c2.56-1.707,6.827-0.853,9.387,0.853l39.253,31.573h31.573c3.413,0,5.973,1.707,7.68,4.267
		c1.707,2.56,1.707,5.973,0,8.533l-34.133,59.733c-0.853,1.707-3.413,3.413-5.12,4.267C86.04,417.133,85.187,417.133,84.333,417.133
		z M50.2,377.88l30.72,18.773l22.187-39.253H84.333c-1.707,0-3.413-0.853-5.12-1.707L50.2,333.507V377.88z"/>
	<path d="M7.533,348.867c-5.12,0-8.533-3.413-8.533-8.533v-102.4c0-5.12,3.413-8.533,8.533-8.533s8.533,3.413,8.533,8.533v102.4
		C16.067,345.453,12.653,348.867,7.533,348.867z"/>
	<path d="M374.467,237.933H203.8c-2.56,0-5.12-1.707-6.827-3.413c-1.707-2.56-1.707-5.12-0.853-7.68l25.6-59.733
		c0.853-4.267,4.267-5.973,7.68-5.973h119.467c3.413,0,6.827,1.707,7.68,5.12l25.6,59.733c0.853,2.56,0.853,5.973-0.853,7.68
		C379.587,236.227,377.027,237.933,374.467,237.933z M216.6,220.867h145.067l-17.92-42.667H235.373L216.6,220.867z"/>
	<path d="M289.133,178.2c-5.12,0-8.533-3.413-8.533-8.533v-34.133c0-23.893,18.773-42.667,42.667-42.667
		c5.12,0,8.533,3.413,8.533,8.533c0,5.12-3.413,8.533-8.533,8.533c-14.507,0-25.6,11.093-25.6,25.6v34.133
		C297.667,174.787,294.253,178.2,289.133,178.2z"/>
	<path d="M502.467,289.133H383c-5.12,0-8.533-3.413-8.533-8.533c0-5.12,3.413-8.533,8.533-8.533h119.467
		c5.12,0,8.533,3.413,8.533,8.533C511,285.72,507.587,289.133,502.467,289.133z"/>
	<path d="M493.933,323.267H348.867c-5.12,0-8.533-3.413-8.533-8.533c0-5.12,3.413-8.533,8.533-8.533h145.067
		c5.12,0,8.533,3.413,8.533,8.533C502.467,319.853,499.053,323.267,493.933,323.267z"/>
</g>
</svg>