<?xml version="1.0" encoding="iso-8859-1"?>
<!-- Uploaded to: SVG Repo, www.svgrepo.com, Generator: SVG Repo Mixer Tools -->
<svg height="800px" width="800px" version="1.1" id="Layer_1" xmlns="http://www.w3.org/2000/svg" xmlns:xlink="http://www.w3.org/1999/xlink" 
	 viewBox="0 0 502 502" xml:space="preserve">
<g>
	<g>
		<path style="fill:#29ABE2;" d="M425.597,273.031c-10.222-63.653-65.392-112.283-131.928-112.283h-6.057v112.283H425.597z"/>
		<path style="fill:#FBB03B;" d="M425.597,273.031H287.612V160.749h-59.236h-27.408H78.961v-19.23
			c0-18.677-15.141-33.817-33.817-33.817H10v53.047v15.914v7.957l90.786,20.459c22.127,4.986,41.103,19.12,52.218,38.891
			l35.426,63.019c7.745,13.778,22.322,22.306,38.128,22.306h200.745v-34.913C427.302,287.114,426.713,279.984,425.597,273.031z"/>
	</g>
	<g>
		<path d="M350.215,219.811c8.933,7.137,16.388,15.747,22.158,25.591c1.861,3.176,5.204,4.945,8.637,4.945
			c1.718,0,3.458-0.443,5.047-1.374c4.765-2.792,6.363-8.919,3.571-13.684c-7.014-11.966-16.074-22.431-26.929-31.104
			c-4.315-3.446-10.607-2.744-14.055,1.571C345.196,210.071,345.9,216.364,350.215,219.811z"/>
		<path d="M315.524,202.512c3.662,0.935,7.302,2.109,10.821,3.491c1.2,0.471,2.436,0.694,3.651,0.694
			c3.992,0,7.764-2.407,9.311-6.349c2.018-5.141-0.514-10.944-5.655-12.962c-4.285-1.682-8.719-3.112-13.179-4.251
			c-5.353-1.366-10.798,1.863-12.164,7.214C306.943,195.7,310.173,201.145,315.524,202.512z"/>
		<path d="M144.287,248.871l35.425,63.018c9.502,16.905,27.452,27.406,46.845,27.406h0.58l-18.633,18.633
			c-3.905,3.905-3.905,10.237,0,14.143c1.953,1.953,4.512,2.929,7.071,2.929s5.119-0.976,7.071-2.929l32.776-32.776h131.715
			l-18.633,18.633c-3.905,3.905-3.905,10.237,0,14.143c1.953,1.953,4.512,2.929,7.071,2.929s5.119-0.976,7.071-2.929l32.776-32.776
			h11.88c5.523,0,10-4.477,10-10v-34.913c0-7.651-0.616-15.368-1.832-22.936c0-0.001,0-0.002,0-0.002
			c-5.354-33.334-22.471-63.878-48.199-86.005c-26.01-22.37-59.252-34.689-93.602-34.689h-6.057H88.961v-9.229
			c0-24.161-19.656-43.817-43.817-43.817H10c-5.523,0-10,4.477-10,10v76.918c0,4.676,3.24,8.728,7.802,9.755l90.786,20.459
			C117.919,219.19,134.576,231.596,144.287,248.871z M413.302,263.031h-115.69v-92.222
			C352.962,172.521,399.628,210.156,413.302,263.031z M20,176.623v-58.921h25.144c13.133,0,23.817,10.685,23.817,23.817v19.229
			c0,5.523,4.477,10,10,10h198.651v102.283c0,5.523,4.477,10,10,10h129.17c0.346,3.779,0.52,7.574,0.52,11.35v24.913H226.557
			c-12.175,0-23.444-6.593-29.411-17.206l-35.425-63.019c-12.481-22.202-33.89-38.147-58.737-43.747L20,176.623z"/>
		<path d="M499.071,354.899c-3.905-3.904-10.236-3.906-14.142,0l-4.622,4.621c-15.977,15.977-37.22,24.776-59.815,24.776H114.216
			c-5.523,0-10,4.477-10,10s4.477,10,10,10h306.276c27.938,0,54.204-10.879,73.958-30.634l4.621-4.621
			C502.976,365.137,502.977,358.805,499.071,354.899z"/>
		<path d="M135,117.999h143v11c0,5.523,4.477,10,10,10s10-4.477,10-10v-11h91c5.523,0,10-4.477,10-10s-4.477-10-10-10H135
			c-5.523,0-10,4.477-10,10S129.477,117.999,135,117.999z"/>
		<path d="M420,117.999h19c5.523,0,10-4.477,10-10s-4.477-10-10-10h-19c-5.523,0-10,4.477-10,10S414.477,117.999,420,117.999z"/>
	</g>
</g>
</svg>