

<svg height="800px" width="800px" version="1.1" id="Layer_1" xmlns="http://www.w3.org/2000/svg" xmlns:xlink="http://www.w3.org/1999/xlink" viewBox="0 0 512 512" xml:space="preserve">
  <path style="fill:#F95428;" d="M365.654,172.205l-8.6-41.011c31.189-6.54,63.448-5.982,94.393,1.618c-12.638,9.694-26.301,17.91-40.685,24.509C396.377,163.93,381.248,168.935,365.654,172.205z"/>
  <g>
    <polygon style="fill:#CCCCCC;" points="357.054,131.194 365.654,172.205 298.156,186.356 288.985,145.473"/>
    <polygon style="fill:#CCCCCC;" points="288.985,145.473 298.156,186.356 152.837,216.823 141.467,176.406"/>
    <polygon style="fill:#CCCCCC;" points="141.467,176.406 152.837,216.823 127.164,222.212 83.313,231.405 74.713,190.406"/>
  </g>
  <g>
    <path style="fill:#999999;" d="M481.495,336.051c0,0,0,0.012-0.012,0c-3.608,2.456-7.972,3.875-12.662,3.875c-12.534,0-22.693-10.16-22.693-22.693c0-12.522,10.16-22.682,22.693-22.682c12.522,0,22.682,10.16,22.682,22.682C491.503,325.065,487.535,331.978,481.495,336.051z"/>
    <path style="fill:#999999;" d="M375.709,319.025c18.306,0,33.132,14.838,33.132,33.144c0,18.294-14.826,33.132-33.132,33.132c-18.294,0-33.132-14.838-33.132-33.132C342.577,333.863,357.415,319.025,375.709,319.025z"/>
    <path style="fill:#999999;" d="M250.337,319.025c18.294,0,33.132,14.838,33.132,33.144c0,18.294-14.838,33.132-33.132,33.132c-18.306,0-33.132-14.838-33.132-33.132C217.204,333.863,232.031,319.025,250.337,319.025z"/>
    <path style="fill:#999999;" d="M124.964,385.301c-18.306,0-33.144-14.838-33.144-33.132c0-18.306,14.838-33.144,33.144-33.144c18.294,0,33.132,14.838,33.132,33.144C158.097,370.463,143.259,385.301,124.964,385.301z"/>
    <path style="fill:#999999;" d="M36.169,349.167c-10.625-3.887-18.201-14.082-18.201-26.045c0-15.315,12.417-27.732,27.732-27.732s27.732,12.417,27.732,27.732s-12.417,27.732-27.732,27.732c-3.34,0-6.54-0.594-9.496-1.676C36.193,349.178,36.181,349.178,36.169,349.167z"/>
  </g>
  <path style="fill:#088443;" d="M481.483,336.051l-36.135,34.692c-9.729,9.345-22.682,14.559-36.17,14.559h-33.47c18.306,0,33.132-14.838,33.132-33.132c0-18.306-14.826-33.144-33.132-33.144c-18.294,0-33.132,14.838-33.132,33.144c0,18.294,14.838,33.132,33.132,33.132H250.337c18.294,0,33.132-14.838,33.132-33.132c0-18.306-14.838-33.144-33.132-33.144c-18.306,0-33.132,14.838-33.132,33.144c0,18.294,14.826,33.132,33.132,33.132H124.964c18.294,0,33.132-14.838,33.132-33.132c0-18.306-14.838-33.144-33.132-33.144c-18.306,0-33.144,14.838-33.144,33.144c0,18.294,14.838,33.132,33.144,33.132c-7.949,0-15.816-1.548-23.182-4.539l-65.578-31.585c2.956,1.082,6.156,1.676,9.496,1.676c15.315,0,27.732-12.417,27.732-27.732c0-15.315-12.417-27.732-27.732-27.732l423.121-0.838c-12.534,0-22.693,10.16-22.693,22.682c0,12.534,10.16,22.693,22.693,22.693C473.512,339.926,477.876,338.507,481.483,336.051z"/>
  <polygon style="fill:#06B559;" points="452.843,264.829 83.313,264.829 83.313,231.405 127.164,222.212 154.349,222.212 306.209,222.212 386.509,222.212"/>
  <g>
    <path style="fill:#333333;" d="M508.165,275.25l-26.05-17.646c-1.444-0.979-3.149-1.502-4.895-1.502h-21.815l-64.182-41.234c-1.407-0.904-3.044-1.385-4.718-1.385h-73.308l-4.581-20.405l58.829-12.336c32.265-6.765,63.147-20.947,89.307-41.008c2.663-2.042,3.92-5.432,3.229-8.718c-0.689-3.285-3.2-5.885-6.46-6.686c-32.016-7.861-65.994-8.441-98.259-1.676l-59.649,12.508l-0.09-0.402c-1.056-4.704-5.723-7.659-10.428-6.604c-4.704,1.056-7.661,5.725-6.605,10.427l0.036,0.162l-130.87,27.443l-0.62-2.204c-1.306-4.64-6.123-7.347-10.765-6.039c-4.64,1.305-7.345,6.125-6.039,10.765l0.3,1.07l-57.614,12.083c-2.266,0.475-4.25,1.831-5.516,3.768c-1.266,1.939-1.711,4.3-1.235,6.566l8.413,40.118v23.787h-7.525c-16.474,0-32.506,3.291-47.647,9.78l-14.119,6.05c-4.432,1.899-6.483,7.03-4.584,11.461s7.031,6.486,11.461,4.584l14.119-6.05c12.957-5.552,26.675-8.369,40.771-8.369h407.486l23.833,16.144c1.5,1.016,3.203,1.504,4.887,1.504c2.798,0,5.548-1.343,7.234-3.835C513.199,283.38,512.157,277.954,508.165,275.25z M295.307,213.483H211.31l80.222-16.822L295.307,213.483z M429.37,137.436c-17.626,10.887-36.951,19.116-57.002,24.242l-4.937-23.542C387.853,134.776,408.856,134.547,429.37,137.436z M350.307,141.531l5.016,23.918l-50.528,10.595l-5.353-23.846L350.307,141.531z M282.355,155.781l5.353,23.847l-128.68,26.984l-6.631-23.578L282.355,155.781z M135.275,186.624l6.631,23.578l-51.843,10.872l-5.016-23.917L135.275,186.624z M92.039,238.494l36.024-7.554h255.881l39.165,25.163H92.039V238.494z"/>
    <path style="fill:#333333;" d="M468.819,285.821c-0.006,0-0.012,0-0.017,0l0,0l-423.116,0.84l0,0c-20.095,0.01-36.441,16.361-36.441,36.458c0,15.491,9.716,28.747,23.371,34.018l65.381,31.486c0.165,0.079,0.332,0.154,0.502,0.222c8.458,3.437,17.36,5.18,26.46,5.18h284.224c15.812,0,30.804-6.031,42.212-16.979l35.761-34.323c7.914-5.709,13.08-15.003,13.08-25.485C500.235,299.914,486.141,285.821,468.819,285.821z M482.779,317.236c0,7.697-6.262,13.959-13.959,13.959s-13.959-6.262-13.959-13.959s6.262-13.959,13.959-13.959S482.779,309.539,482.779,317.236z M45.703,304.117c10.477,0,19.001,8.523,19.001,19.001s-8.523,19.001-19.001,19.001s-19.001-8.523-19.001-19.001S35.226,304.117,45.703,304.117z M125.014,376.569h-0.056c-0.035,0-0.07-0.002-0.106-0.002c-13.409-0.058-24.302-10.979-24.302-24.402c0-13.458,10.949-24.408,24.408-24.408s24.408,10.95,24.408,24.408C149.366,365.604,138.447,376.537,125.014,376.569z M225.927,352.164c0-13.458,10.949-24.408,24.408-24.408s24.408,10.95,24.408,24.408c0,13.439-10.918,24.374-24.351,24.404h-0.113C236.845,376.537,225.927,365.604,225.927,352.164z M351.301,352.164c0-13.458,10.949-24.408,24.408-24.408s24.408,10.95,24.408,24.408c0,13.439-10.918,24.374-24.351,24.404h-0.113C362.221,376.537,351.301,365.604,351.301,352.164z M439.306,364.45c-8.127,7.801-18.802,12.101-30.064,12.116c5.229-6.645,8.329-15.024,8.329-24.403c0-23.083-18.781-41.864-41.864-41.864c-23.083,0-41.864,18.781-41.864,41.864c0,9.379,3.1,17.759,8.33,24.404h-58.308c5.23-6.645,8.33-15.025,8.33-24.404c0-23.083-18.781-41.864-41.864-41.864s-41.864,18.781-41.864,41.864c0,9.379,3.1,17.759,8.33,24.404h-58.306c5.23-6.645,8.33-15.025,8.33-24.404c0-23.083-18.781-41.864-41.864-41.864s-41.864,18.781-41.864,41.864c0,3.697,0.486,7.236,1.391,10.577l-18.889-9.096c9.962-6.515,16.563-17.761,16.563-30.527c0-6.984-1.977-13.512-5.396-19.062l363.894-0.723c-2.08,4.194-3.254,8.913-3.254,13.903c0,13.46,8.511,24.966,20.432,29.43L439.306,364.45z"/>
  </g>
</svg>
