<!DOCTYPE svg PUBLIC "-//W3C//DTD SVG 1.1//EN" "http://www.w3.org/Graphics/SVG/1.1/DTD/svg11.dtd">

<!-- Uploaded to: SVG Repo, www.svgrepo.com, Transformed by: SVG Repo Mixer Tools -->
<svg width="800px" height="800px" viewBox="0 0 512 512" id="Layer_1" version="1.1" xml:space="preserve" xmlns="http://www.w3.org/2000/svg" xmlns:xlink="http://www.w3.org/1999/xlink" fill="#000000" transform="matrix(-1, 0, 0, 1, 0, 0)">

<g id="SVGRepo_bgCarrier" stroke-width="0"/>

<g id="SVGRepo_tracerCarrier" stroke-linecap="round" stroke-linejoin="round"/>

<g id="SVGRepo_iconCarrier"> <style type="text/css"> .st0{fill:#CFF1FF;} .st1{fill:#4CC3F2;} .st2{fill:#0A557F;} .st3{fill:#FFFFFF;} </style> <g> <path class="st0" d="M34.1,477.9c-2-24.7-5.1-69,20.2-112.3l92.1,92.1C103.2,482.9,58.8,479.9,34.1,477.9z"/> <path class="st1" d="M333.4,278L183.9,427.5l-67.6-67.6l-10.6,10.6l67.5,67.5c-4.6,4.2-9.2,8-13.9,11.4l-96.6-96.6 c4.8-6.6,10.3-13.1,16.7-19.5l150.8-150.8l63.1,63.1l10.6-10.6l-59.2-59.2l38.5-10.2l63.2,63.2L333.4,278z"/> <rect class="st2" height="15" transform="matrix(0.7071 -0.7071 0.7071 0.7071 -70.1152 144.8125)" width="67.3" x="106.1" y="149.5"/> <rect class="st2" height="15" transform="matrix(0.7072 -0.7071 0.7071 0.7072 -30.4094 161.2528)" width="15" x="172" y="109.8"/> <rect class="st2" height="15" transform="matrix(0.7071 -0.7071 0.7071 0.7071 -236.4372 328.0165)" width="67.3" x="244.1" y="441.9"/> <rect class="st2" height="15" transform="matrix(0.7072 -0.707 0.707 0.7072 -196.7274 344.438)" width="15" x="310" y="402.2"/> <rect class="st3" height="15" transform="matrix(0.7071 -0.7071 0.7071 0.7071 -219.0842 169.5278)" width="15" x="87.6" y="341.7"/> <rect class="st3" height="15" transform="matrix(0.7071 -0.7071 0.7071 0.7071 -89.0273 297.4184)" width="15" x="307" y="248.7"/> <path class="st2" d="M387.3,135.3l-10.6-10.6l-16.8,16.8l-17-93l-66.1,66.1l1,36.9l-51.5,13.6L68.8,322.6 C11,380.4,16.6,448.2,19.3,480.7c0.1,1.6,0.3,3.2,0.4,4.7l0.5,6.4l6.4,0.5c1.5,0.1,3,0.2,4.7,0.4c32.6,2.7,100.4,8.3,158.1-49.5 l157.5-157.5l13.6-51.5l36.9,1l66.1-66.1l-93-17L387.3,135.3z M146.5,457.7c-43.3,25.3-87.7,22.2-112.3,20.2 c-2-24.7-5.1-69,20.2-112.3L146.5,457.7z M333.4,278L183.9,427.5l-67.6-67.6l-10.6,10.6l67.5,67.5c-4.6,4.2-9.2,8-13.9,11.4 l-96.6-96.6c4.8-6.6,10.3-13.1,16.7-19.5l150.8-150.8l63.1,63.1l10.6-10.6l-59.2-59.2l38.5-10.2l63.2,63.2L333.4,278z M432.7,178.7 L391.4,220l-33.4-0.9L292.9,154l-0.9-33.4l41.3-41.3l13.7,75.1l-17.9,17.9l10.6,10.6l17.9-17.9L432.7,178.7z"/> <rect class="st2" height="15" transform="matrix(0.7071 -0.7071 0.7071 0.7071 35.878 314.7712)" width="15" x="390.4" y="106.6"/> <rect class="st2" height="15" transform="matrix(0.7071 -0.7071 0.7071 0.7071 47.2632 348.1386)" width="67.3" x="410.2" y="109.5"/> <rect class="st2" height="15" transform="matrix(0.7071 -0.7071 0.7071 0.7071 86.9684 364.5834)" width="15" x="476.1" y="69.8"/> <rect class="st2" height="15" transform="matrix(0.7071 -0.7072 0.7072 0.7071 67.5486 299.2654)" width="67.3" x="361.3" y="60.6"/> <rect class="st2" height="15" transform="matrix(0.7071 -0.7071 0.7071 0.7071 107.2431 315.6928)" width="15" x="427.2" y="20.9"/> </g> </g>

</svg>